<svg width="100" height="96" viewBox="0 0 100 96" fill="none" xmlns="http://www.w3.org/2000/svg">
<g filter="url(#filter0_dddd_5234_76570)">
<circle cx="50.5" cy="46.5" r="38.5" fill="#58BCC7"/>
</g>
<path d="M63.15 33.875C62.7833 32.75 61.6833 32 60.5833 32H40.4167C39.1333 32 38.2167 32.75 37.85 33.875L34 45.125V60.125C34 61.0625 34.9167 62 35.8333 62H37.6667C38.7667 62 39.5 61.0625 39.5 60.125V58.25H61.5V60.125C61.5 61.0625 62.4167 62 63.3333 62H65.1667C66.0833 62 67 61.0625 67 60.125V45.125L63.15 33.875ZM40.9667 35.75H59.85L61.8667 41.375H39.1333L40.9667 35.75ZM63.3333 54.5H37.6667V45.125H63.3333V54.5ZM42.25 47C43.7167 47 45 48.3125 45 49.8125C45 51.3125 43.7167 52.625 42.25 52.625C40.7833 52.625 39.5 51.3125 39.5 49.8125C39.5 48.3125 40.7833 47 42.25 47ZM58.75 47C60.2167 47 61.5 48.3125 61.5 49.8125C61.5 51.3125 60.2167 52.625 58.75 52.625C57.2833 52.625 56 51.3125 56 49.8125C56 48.3125 57.2833 47 58.75 47Z" fill="#FFFEF6"/>
<defs>
<filter id="filter0_dddd_5234_76570" x="0" y="-4" width="100" height="100" filterUnits="userSpaceOnUse" color-interpolation-filters="sRGB">
<feFlood flood-opacity="0" result="BackgroundImageFix"/>
<feColorMatrix in="SourceAlpha" type="matrix" values="0 0 0 0 0 0 0 0 0 0 0 0 0 0 0 0 0 0 127 0" result="hardAlpha"/>
<feOffset dx="4" dy="4"/>
<feGaussianBlur stdDeviation="3.5"/>
<feComposite in2="hardAlpha" operator="out"/>
<feColorMatrix type="matrix" values="0 0 0 0 0 0 0 0 0 0 0 0 0 0 0 0 0 0 0.15 0"/>
<feBlend mode="normal" in2="BackgroundImageFix" result="effect1_dropShadow_5234_76570"/>
<feColorMatrix in="SourceAlpha" type="matrix" values="0 0 0 0 0 0 0 0 0 0 0 0 0 0 0 0 0 0 127 0" result="hardAlpha"/>
<feOffset dx="-4" dy="-4"/>
<feGaussianBlur stdDeviation="4"/>
<feComposite in2="hardAlpha" operator="out"/>
<feColorMatrix type="matrix" values="0 0 0 0 1 0 0 0 0 1 0 0 0 0 1 0 0 0 1 0"/>
<feBlend mode="normal" in2="effect1_dropShadow_5234_76570" result="effect2_dropShadow_5234_76570"/>
<feColorMatrix in="SourceAlpha" type="matrix" values="0 0 0 0 0 0 0 0 0 0 0 0 0 0 0 0 0 0 127 0" result="hardAlpha"/>
<feOffset dx="-2" dy="-1"/>
<feGaussianBlur stdDeviation="1.5"/>
<feComposite in2="hardAlpha" operator="out"/>
<feColorMatrix type="matrix" values="0 0 0 0 0 0 0 0 0 0 0 0 0 0 0 0 0 0 0.05 0"/>
<feBlend mode="normal" in2="effect2_dropShadow_5234_76570" result="effect3_dropShadow_5234_76570"/>
<feColorMatrix in="SourceAlpha" type="matrix" values="0 0 0 0 0 0 0 0 0 0 0 0 0 0 0 0 0 0 127 0" result="hardAlpha"/>
<feOffset dx="1" dy="1"/>
<feGaussianBlur stdDeviation="1.5"/>
<feComposite in2="hardAlpha" operator="out"/>
<feColorMatrix type="matrix" values="0 0 0 0 0 0 0 0 0 0 0 0 0 0 0 0 0 0 0.15 0"/>
<feBlend mode="normal" in2="effect3_dropShadow_5234_76570" result="effect4_dropShadow_5234_76570"/>
<feBlend mode="normal" in="SourceGraphic" in2="effect4_dropShadow_5234_76570" result="shape"/>
</filter>
</defs>
</svg>
