<svg width="100" height="96" viewBox="0 0 100 96" fill="none" xmlns="http://www.w3.org/2000/svg">
<g filter="url(#filter0_dddd_5234_76609)">
<circle cx="50.5" cy="46.5" r="38.5" fill="#4A7CB3"/>
</g>
<path d="M65.0833 31.7L62.1667 29L59.25 31.7L56.3333 29L53.4167 31.7L50.5 29L47.5833 31.7L44.6667 29L41.75 31.7L38.8333 29L35.9167 31.7L33 29V65L35.9167 62.3L38.8333 65L41.75 62.3L44.6667 65L47.5833 62.3L50.5 65L53.4167 62.3L56.3333 65L59.25 62.3L62.1667 65L65.0833 62.3L68 65V29L65.0833 31.7ZM64.1111 59.6H36.8889V34.4H64.1111V59.6ZM38.8333 52.4H62.1667V56H38.8333V52.4ZM38.8333 45.2H62.1667V48.8H38.8333V45.2ZM38.8333 38H62.1667V41.6H38.8333V38Z" fill="#FFFEF6"/>
<defs>
<filter id="filter0_dddd_5234_76609" x="0" y="-4" width="100" height="100" filterUnits="userSpaceOnUse" color-interpolation-filters="sRGB">
<feFlood flood-opacity="0" result="BackgroundImageFix"/>
<feColorMatrix in="SourceAlpha" type="matrix" values="0 0 0 0 0 0 0 0 0 0 0 0 0 0 0 0 0 0 127 0" result="hardAlpha"/>
<feOffset dx="4" dy="4"/>
<feGaussianBlur stdDeviation="3.5"/>
<feComposite in2="hardAlpha" operator="out"/>
<feColorMatrix type="matrix" values="0 0 0 0 0 0 0 0 0 0 0 0 0 0 0 0 0 0 0.15 0"/>
<feBlend mode="normal" in2="BackgroundImageFix" result="effect1_dropShadow_5234_76609"/>
<feColorMatrix in="SourceAlpha" type="matrix" values="0 0 0 0 0 0 0 0 0 0 0 0 0 0 0 0 0 0 127 0" result="hardAlpha"/>
<feOffset dx="-4" dy="-4"/>
<feGaussianBlur stdDeviation="4"/>
<feComposite in2="hardAlpha" operator="out"/>
<feColorMatrix type="matrix" values="0 0 0 0 1 0 0 0 0 1 0 0 0 0 1 0 0 0 1 0"/>
<feBlend mode="normal" in2="effect1_dropShadow_5234_76609" result="effect2_dropShadow_5234_76609"/>
<feColorMatrix in="SourceAlpha" type="matrix" values="0 0 0 0 0 0 0 0 0 0 0 0 0 0 0 0 0 0 127 0" result="hardAlpha"/>
<feOffset dx="-2" dy="-1"/>
<feGaussianBlur stdDeviation="1.5"/>
<feComposite in2="hardAlpha" operator="out"/>
<feColorMatrix type="matrix" values="0 0 0 0 0 0 0 0 0 0 0 0 0 0 0 0 0 0 0.05 0"/>
<feBlend mode="normal" in2="effect2_dropShadow_5234_76609" result="effect3_dropShadow_5234_76609"/>
<feColorMatrix in="SourceAlpha" type="matrix" values="0 0 0 0 0 0 0 0 0 0 0 0 0 0 0 0 0 0 127 0" result="hardAlpha"/>
<feOffset dx="1" dy="1"/>
<feGaussianBlur stdDeviation="1.5"/>
<feComposite in2="hardAlpha" operator="out"/>
<feColorMatrix type="matrix" values="0 0 0 0 0 0 0 0 0 0 0 0 0 0 0 0 0 0 0.15 0"/>
<feBlend mode="normal" in2="effect3_dropShadow_5234_76609" result="effect4_dropShadow_5234_76609"/>
<feBlend mode="normal" in="SourceGraphic" in2="effect4_dropShadow_5234_76609" result="shape"/>
</filter>
</defs>
</svg>
