<svg width="100" height="96" viewBox="0 0 100 96" fill="none" xmlns="http://www.w3.org/2000/svg">
<g filter="url(#filter0_dddd_5234_76576)">
<circle cx="50.5" cy="46.5" r="38.5" fill="#D94E80"/>
</g>
<path d="M50.18 59.812L50 59.9973L49.802 59.812C41.252 51.8262 35.6 46.5455 35.6 41.1907C35.6 37.485 38.3 34.7057 41.9 34.7057C44.672 34.7057 47.372 36.5586 48.326 39.0785H51.674C52.628 36.5586 55.328 34.7057 58.1 34.7057C61.7 34.7057 64.4 37.485 64.4 41.1907C64.4 46.5455 58.748 51.8262 50.18 59.812ZM58.1 31C54.968 31 51.962 32.5008 50 34.854C48.038 32.5008 45.032 31 41.9 31C36.356 31 32 35.4654 32 41.1907C32 48.176 38.12 53.9014 47.39 62.5542L50 65L52.61 62.5542C61.88 53.9014 68 48.176 68 41.1907C68 35.4654 63.644 31 58.1 31Z" fill="#FFFEF6"/>
<defs>
<filter id="filter0_dddd_5234_76576" x="0" y="-4" width="100" height="100" filterUnits="userSpaceOnUse" color-interpolation-filters="sRGB">
<feFlood flood-opacity="0" result="BackgroundImageFix"/>
<feColorMatrix in="SourceAlpha" type="matrix" values="0 0 0 0 0 0 0 0 0 0 0 0 0 0 0 0 0 0 127 0" result="hardAlpha"/>
<feOffset dx="4" dy="4"/>
<feGaussianBlur stdDeviation="3.5"/>
<feComposite in2="hardAlpha" operator="out"/>
<feColorMatrix type="matrix" values="0 0 0 0 0 0 0 0 0 0 0 0 0 0 0 0 0 0 0.15 0"/>
<feBlend mode="normal" in2="BackgroundImageFix" result="effect1_dropShadow_5234_76576"/>
<feColorMatrix in="SourceAlpha" type="matrix" values="0 0 0 0 0 0 0 0 0 0 0 0 0 0 0 0 0 0 127 0" result="hardAlpha"/>
<feOffset dx="-4" dy="-4"/>
<feGaussianBlur stdDeviation="4"/>
<feComposite in2="hardAlpha" operator="out"/>
<feColorMatrix type="matrix" values="0 0 0 0 1 0 0 0 0 1 0 0 0 0 1 0 0 0 1 0"/>
<feBlend mode="normal" in2="effect1_dropShadow_5234_76576" result="effect2_dropShadow_5234_76576"/>
<feColorMatrix in="SourceAlpha" type="matrix" values="0 0 0 0 0 0 0 0 0 0 0 0 0 0 0 0 0 0 127 0" result="hardAlpha"/>
<feOffset dx="-2" dy="-1"/>
<feGaussianBlur stdDeviation="1.5"/>
<feComposite in2="hardAlpha" operator="out"/>
<feColorMatrix type="matrix" values="0 0 0 0 0 0 0 0 0 0 0 0 0 0 0 0 0 0 0.05 0"/>
<feBlend mode="normal" in2="effect2_dropShadow_5234_76576" result="effect3_dropShadow_5234_76576"/>
<feColorMatrix in="SourceAlpha" type="matrix" values="0 0 0 0 0 0 0 0 0 0 0 0 0 0 0 0 0 0 127 0" result="hardAlpha"/>
<feOffset dx="1" dy="1"/>
<feGaussianBlur stdDeviation="1.5"/>
<feComposite in2="hardAlpha" operator="out"/>
<feColorMatrix type="matrix" values="0 0 0 0 0 0 0 0 0 0 0 0 0 0 0 0 0 0 0.15 0"/>
<feBlend mode="normal" in2="effect3_dropShadow_5234_76576" result="effect4_dropShadow_5234_76576"/>
<feBlend mode="normal" in="SourceGraphic" in2="effect4_dropShadow_5234_76576" result="shape"/>
</filter>
</defs>
</svg>
