<svg width="100" height="96" viewBox="0 0 100 96" fill="none" xmlns="http://www.w3.org/2000/svg">
<g filter="url(#filter0_dddd_5234_76633)">
<circle cx="50.5" cy="46.5" r="38.5" fill="#8AAFD0"/>
</g>
<path d="M41 52.6667H44.8C44.8 54.7067 47.403 56.4444 50.5 56.4444C53.597 56.4444 56.2 54.7067 56.2 52.6667C56.2 50.5889 54.224 49.8333 50.044 48.8322C46.016 47.8311 41 46.5844 41 41.3333C41 37.9522 43.793 35.0811 47.65 34.1178V30H53.35V34.1178C57.207 35.0811 60 37.9522 60 41.3333H56.2C56.2 39.2933 53.597 37.5556 50.5 37.5556C47.403 37.5556 44.8 39.2933 44.8 41.3333C44.8 43.4111 46.776 44.1667 50.956 45.1678C54.984 46.1689 60 47.4156 60 52.6667C60 56.0478 57.207 58.9189 53.35 59.8822V64H47.65V59.8822C43.793 58.9189 41 56.0478 41 52.6667Z" fill="#FFFEF6"/>
<defs>
<filter id="filter0_dddd_5234_76633" x="0" y="-4" width="100" height="100" filterUnits="userSpaceOnUse" color-interpolation-filters="sRGB">
<feFlood flood-opacity="0" result="BackgroundImageFix"/>
<feColorMatrix in="SourceAlpha" type="matrix" values="0 0 0 0 0 0 0 0 0 0 0 0 0 0 0 0 0 0 127 0" result="hardAlpha"/>
<feOffset dx="4" dy="4"/>
<feGaussianBlur stdDeviation="3.5"/>
<feComposite in2="hardAlpha" operator="out"/>
<feColorMatrix type="matrix" values="0 0 0 0 0 0 0 0 0 0 0 0 0 0 0 0 0 0 0.15 0"/>
<feBlend mode="normal" in2="BackgroundImageFix" result="effect1_dropShadow_5234_76633"/>
<feColorMatrix in="SourceAlpha" type="matrix" values="0 0 0 0 0 0 0 0 0 0 0 0 0 0 0 0 0 0 127 0" result="hardAlpha"/>
<feOffset dx="-4" dy="-4"/>
<feGaussianBlur stdDeviation="4"/>
<feComposite in2="hardAlpha" operator="out"/>
<feColorMatrix type="matrix" values="0 0 0 0 1 0 0 0 0 1 0 0 0 0 1 0 0 0 1 0"/>
<feBlend mode="normal" in2="effect1_dropShadow_5234_76633" result="effect2_dropShadow_5234_76633"/>
<feColorMatrix in="SourceAlpha" type="matrix" values="0 0 0 0 0 0 0 0 0 0 0 0 0 0 0 0 0 0 127 0" result="hardAlpha"/>
<feOffset dx="-2" dy="-1"/>
<feGaussianBlur stdDeviation="1.5"/>
<feComposite in2="hardAlpha" operator="out"/>
<feColorMatrix type="matrix" values="0 0 0 0 0 0 0 0 0 0 0 0 0 0 0 0 0 0 0.05 0"/>
<feBlend mode="normal" in2="effect2_dropShadow_5234_76633" result="effect3_dropShadow_5234_76633"/>
<feColorMatrix in="SourceAlpha" type="matrix" values="0 0 0 0 0 0 0 0 0 0 0 0 0 0 0 0 0 0 127 0" result="hardAlpha"/>
<feOffset dx="1" dy="1"/>
<feGaussianBlur stdDeviation="1.5"/>
<feComposite in2="hardAlpha" operator="out"/>
<feColorMatrix type="matrix" values="0 0 0 0 0 0 0 0 0 0 0 0 0 0 0 0 0 0 0.15 0"/>
<feBlend mode="normal" in2="effect3_dropShadow_5234_76633" result="effect4_dropShadow_5234_76633"/>
<feBlend mode="normal" in="SourceGraphic" in2="effect4_dropShadow_5234_76633" result="shape"/>
</filter>
</defs>
</svg>
